<svg xmlns="http://www.w3.org/2000/svg" xmlns:xlink="http://www.w3.org/1999/xlink" width="2000" zoomAndPan="magnify" viewBox="0 0 1500 1499.999933" height="2000" preserveAspectRatio="xMidYMid meet" version="1.0"><path fill="#fefefe" d="M 804.15625 764.613281 L 861.339844 764.613281 L 870.867188 776.527344 L 880.398438 869.445312 L 885.164062 917.097656 L 889.929688 917.097656 L 897.078125 893.273438 L 908.988281 859.917969 L 913.753906 855.152344 L 928.050781 852.769531 L 956.640625 852.769531 L 968.554688 859.917969 L 978.085938 878.976562 L 992.378906 912.332031 L 997.144531 914.714844 L 997.144531 871.828125 L 999.527344 776.527344 L 1001.910156 766.996094 L 1009.058594 764.613281 L 1061.476562 764.613281 L 1073.386719 771.761719 L 1073.386719 959.984375 L 1071.007812 986.195312 L 1068.625 988.578125 L 1068.625 1081.496094 L 1066.242188 1112.472656 L 1061.476562 1122 L 1056.710938 1124.382812 L 997.144531 1124.382812 L 985.234375 1112.472656 L 975.703125 1088.644531 L 968.554688 1064.820312 L 949.492188 1002.871094 L 949.492188 988.578125 L 951.875 983.8125 L 937.582031 981.429688 L 935.199219 1000.488281 L 916.136719 1076.734375 L 906.605469 1112.472656 L 899.460938 1122 L 889.929688 1124.382812 L 837.511719 1124.382812 L 825.597656 1117.238281 L 820.832031 1091.027344 L 811.304688 998.105469 L 808.921875 974.28125 L 811.304688 957.601562 L 813.6875 950.457031 L 808.921875 912.332031 L 797.007812 790.820312 L 797.007812 771.761719 Z M 1025.738281 771.761719 L 1028.121094 776.527344 L 1032.882812 776.527344 L 1032.882812 771.761719 Z M 816.070312 786.054688 L 816.070312 790.820312 L 823.214844 788.4375 Z M 837.511719 786.054688 L 837.511719 790.820312 L 842.277344 790.820312 L 842.277344 786.054688 Z M 851.808594 786.054688 L 851.808594 790.820312 L 856.574219 790.820312 L 856.574219 786.054688 Z M 827.980469 864.683594 L 830.363281 871.828125 L 832.746094 864.683594 Z M 856.574219 864.683594 L 858.957031 871.828125 L 863.71875 871.828125 L 863.71875 864.683594 Z M 854.191406 883.742188 L 856.574219 893.273438 L 863.71875 890.890625 L 861.339844 883.742188 Z M 937.582031 938.542969 L 939.964844 945.691406 L 947.109375 948.074219 L 947.109375 940.925781 Z M 966.171875 943.308594 L 968.554688 948.074219 Z M 1047.179688 943.308594 L 1042.414062 950.457031 L 1051.945312 955.21875 L 1054.328125 945.691406 Z M 944.730469 959.984375 L 947.109375 967.132812 L 949.492188 959.984375 Z M 973.320312 967.132812 L 975.703125 974.28125 L 987.617188 971.898438 L 985.234375 967.132812 Z M 875.632812 981.429688 L 875.632812 986.195312 L 880.398438 986.195312 L 880.398438 981.429688 Z M 968.554688 1014.785156 L 970.9375 1019.550781 L 973.320312 1014.785156 Z M 897.078125 1024.316406 L 897.078125 1029.082031 L 901.84375 1026.699219 Z M 987.617188 1060.054688 L 987.617188 1064.820312 L 992.378906 1064.820312 L 992.378906 1060.054688 Z M 470.59375 376.25 L 530.15625 376.25 L 537.304688 385.78125 L 546.835938 433.433594 L 556.367188 476.320312 L 558.75 497.761719 L 549.21875 502.527344 L 556.367188 523.972656 L 558.75 540.648438 L 563.515625 543.03125 L 568.28125 528.738281 L 577.808594 528.738281 L 589.722656 547.796875 L 596.871094 547.796875 L 580.191406 521.589844 L 589.722656 488.234375 L 618.3125 400.078125 L 627.84375 378.632812 L 632.609375 376.25 L 689.792969 376.25 L 696.9375 383.398438 L 701.703125 502.527344 L 704.085938 562.09375 L 701.703125 569.242188 L 692.175781 571.625 L 696.9375 602.597656 L 699.320312 647.867188 L 696.9375 664.542969 L 692.175781 669.308594 L 634.992188 669.308594 L 627.84375 664.542969 L 625.460938 635.953125 L 625.460938 571.625 L 620.695312 571.625 L 613.546875 602.597656 L 601.636719 633.570312 L 594.488281 657.394531 L 584.957031 669.308594 L 539.6875 669.308594 L 532.539062 662.160156 L 513.480469 593.066406 L 508.714844 578.769531 L 503.949219 576.386719 L 501.566406 626.421875 L 499.183594 659.777344 L 489.652344 669.308594 L 432.472656 669.308594 L 427.707031 664.542969 L 427.707031 640.71875 L 434.855469 574.003906 L 437.238281 528.738281 L 449.148438 435.816406 L 458.679688 435.816406 L 477.742188 459.640625 L 496.800781 476.320312 L 515.863281 485.851562 L 489.652344 466.789062 L 463.445312 433.433594 L 461.0625 416.753906 L 463.445312 385.78125 Z M 656.433594 402.460938 L 661.199219 407.222656 L 661.199219 402.460938 Z M 518.246094 426.285156 L 515.863281 431.050781 L 520.628906 431.050781 Z M 663.582031 445.347656 L 665.964844 452.492188 Z M 525.394531 447.726562 L 530.15625 457.257812 L 530.15625 447.726562 Z M 515.863281 469.171875 L 518.246094 473.9375 Z M 627.84375 478.703125 L 634.992188 485.851562 L 637.375 478.703125 Z M 639.757812 574.003906 L 642.140625 578.769531 L 649.289062 578.769531 L 649.289062 574.003906 Z M 477.742188 583.535156 L 475.359375 593.066406 L 480.125 595.449219 L 480.125 583.535156 Z M 601.636719 590.683594 L 601.636719 595.449219 L 608.785156 593.066406 Z M 651.671875 590.683594 L 654.050781 595.449219 Z M 661.199219 631.1875 L 665.964844 635.953125 L 665.964844 631.1875 Z M 1156.78125 764.613281 L 1216.34375 764.613281 L 1225.875 774.144531 L 1249.699219 828.941406 L 1268.761719 876.59375 L 1285.4375 914.714844 L 1287.820312 926.628906 L 1285.4375 933.777344 L 1299.734375 943.308594 L 1321.179688 993.34375 L 1352.152344 1067.203125 L 1366.449219 1100.558594 L 1373.59375 1117.238281 L 1368.828125 1124.382812 L 1342.621094 1126.765625 L 1302.117188 1124.382812 L 1299.734375 1117.238281 L 1294.96875 1117.238281 L 1275.910156 1079.113281 L 1273.527344 1076.734375 L 1194.902344 1076.734375 L 1178.222656 1083.878906 L 1173.457031 1119.617188 L 1168.691406 1126.765625 L 1097.214844 1126.765625 L 1094.832031 1124.382812 L 1094.832031 1107.707031 L 1104.363281 1048.140625 L 1116.273438 988.578125 L 1125.804688 983.8125 L 1121.039062 976.664062 L 1121.039062 957.601562 L 1135.335938 888.507812 L 1130.570312 871.828125 L 1142.484375 809.882812 L 1152.015625 769.378906 Z M 1213.960938 819.414062 L 1213.960938 824.179688 L 1218.726562 824.179688 L 1218.726562 819.414062 Z M 1233.023438 833.707031 L 1235.40625 838.472656 L 1237.789062 833.707031 Z M 1242.550781 871.828125 L 1242.550781 881.359375 L 1247.316406 878.976562 L 1244.933594 871.828125 Z M 1154.398438 895.65625 L 1156.78125 902.804688 L 1178.222656 909.949219 L 1199.664062 912.332031 L 1204.429688 914.714844 L 1192.519531 986.195312 L 1194.902344 1000.488281 L 1240.171875 1000.488281 L 1242.550781 988.578125 L 1216.34375 921.863281 L 1213.960938 912.332031 L 1242.550781 914.714844 L 1263.996094 921.863281 L 1252.082031 909.949219 L 1233.023438 902.804688 L 1180.605469 900.421875 Z M 1142.484375 950.457031 L 1147.25 959.984375 L 1149.632812 950.457031 Z M 1275.910156 955.21875 L 1275.910156 959.984375 L 1280.675781 957.601562 Z M 1180.605469 979.046875 L 1180.605469 986.195312 L 1185.371094 986.195312 L 1185.371094 979.046875 Z M 1304.5 993.34375 L 1304.5 1000.488281 L 1309.265625 1000.488281 L 1306.882812 993.34375 Z M 1256.847656 1043.375 L 1252.082031 1050.523438 L 1259.230469 1050.523438 L 1259.230469 1043.375 Z M 1194.902344 1050.523438 L 1194.902344 1055.289062 L 1199.664062 1052.90625 Z M 1132.953125 1060.054688 L 1137.71875 1064.820312 L 1137.71875 1060.054688 Z M 1163.925781 1064.820312 L 1166.308594 1069.585938 L 1171.074219 1067.203125 Z M 1116.273438 1095.792969 L 1121.039062 1100.558594 L 1121.039062 1095.792969 Z M 751.738281 373.867188 L 875.632812 373.867188 L 901.84375 381.015625 L 920.902344 395.3125 L 937.582031 414.371094 L 939.964844 445.347656 L 939.964844 497.761719 L 923.285156 519.207031 L 937.582031 535.882812 L 942.347656 559.710938 L 944.730469 593.066406 L 947.109375 602.597656 L 947.109375 635.953125 L 932.816406 652.632812 L 916.136719 666.925781 L 908.988281 669.308594 L 842.277344 669.308594 L 835.128906 662.160156 L 830.363281 645.484375 L 830.363281 621.65625 L 835.128906 604.980469 L 842.277344 600.214844 L 863.71875 600.214844 L 870.867188 593.066406 L 870.867188 562.09375 L 858.957031 550.179688 L 851.808594 545.414062 L 851.808594 523.972656 L 835.128906 504.910156 L 820.832031 495.378906 L 847.042969 521.589844 L 847.042969 538.265625 L 842.277344 547.796875 L 837.511719 550.179688 L 808.921875 552.5625 L 808.921875 600.214844 L 825.597656 602.597656 L 825.597656 643.101562 L 827.980469 652.632812 L 827.980469 669.308594 L 749.355469 669.308594 L 742.207031 666.925781 L 737.441406 645.484375 L 737.441406 476.320312 L 742.207031 466.789062 L 742.207031 395.3125 L 746.972656 378.632812 Z M 775.566406 395.3125 L 768.417969 404.84375 L 770.800781 411.988281 L 777.949219 404.84375 L 780.328125 395.3125 Z M 820.832031 433.433594 L 813.6875 435.816406 L 811.304688 442.964844 L 813.6875 481.085938 L 816.070312 483.46875 L 863.71875 483.46875 L 868.484375 476.320312 L 868.484375 445.347656 L 856.574219 435.816406 L 851.808594 433.433594 Z M 851.808594 490.613281 L 854.191406 495.378906 L 858.957031 492.996094 Z M 880.398438 512.058594 L 882.78125 519.207031 L 885.164062 512.058594 Z M 813.6875 533.5 L 818.453125 538.265625 L 818.453125 533.5 Z M 758.886719 574.003906 L 761.269531 578.769531 L 763.652344 574.003906 Z M 756.503906 602.597656 L 756.503906 607.363281 L 761.269531 607.363281 L 761.269531 602.597656 Z M 842.277344 626.421875 L 842.277344 633.570312 L 849.425781 631.1875 L 849.425781 626.421875 Z M 1349.769531 364.335938 L 1416.480469 366.71875 L 1421.246094 371.484375 L 1418.863281 383.398438 L 1399.804688 414.371094 L 1364.066406 471.554688 L 1359.300781 483.46875 L 1383.125 521.589844 L 1399.804688 545.414062 L 1414.097656 564.476562 L 1430.777344 588.300781 L 1452.21875 619.273438 L 1478.429688 659.777344 L 1476.046875 671.691406 L 1406.953125 671.691406 L 1397.421875 666.925781 L 1380.742188 640.71875 L 1368.828125 624.039062 L 1368.828125 619.273438 L 1359.300781 616.890625 L 1349.769531 604.980469 L 1325.941406 566.859375 L 1314.03125 557.328125 L 1309.265625 566.859375 L 1302.117188 581.152344 L 1304.5 604.980469 L 1311.648438 655.015625 L 1311.648438 676.457031 L 1309.265625 681.222656 L 1273.527344 683.605469 L 1247.316406 683.605469 L 1237.789062 676.457031 L 1233.023438 647.867188 L 1223.492188 566.859375 L 1218.726562 554.945312 L 1213.960938 507.292969 L 1204.429688 433.433594 L 1199.664062 383.398438 L 1204.429688 376.25 L 1263.996094 376.25 L 1271.144531 385.78125 L 1280.675781 457.257812 L 1290.203125 452.492188 L 1297.351562 440.582031 L 1304.5 442.964844 L 1316.414062 471.554688 L 1328.324219 507.292969 L 1345.003906 559.710938 L 1361.683594 585.917969 L 1359.300781 574.003906 L 1349.769531 559.710938 L 1342.621094 547.796875 L 1318.796875 469.171875 L 1304.5 433.433594 L 1306.882812 419.136719 L 1321.179688 392.929688 L 1337.855469 369.101562 Z M 1371.210938 402.460938 L 1371.210938 407.222656 L 1378.359375 404.84375 Z M 1244.933594 433.433594 L 1242.550781 438.199219 L 1247.316406 438.199219 Z M 1221.109375 492.996094 L 1223.492188 497.761719 L 1230.640625 495.378906 Z M 1347.386719 492.996094 L 1347.386719 497.761719 L 1352.152344 497.761719 L 1352.152344 492.996094 Z M 1292.585938 504.910156 L 1294.96875 509.675781 Z M 1271.144531 528.738281 L 1273.527344 533.5 L 1280.675781 531.121094 Z M 1292.585938 543.03125 L 1292.585938 550.179688 L 1299.734375 547.796875 Z M 1275.910156 628.804688 L 1275.910156 633.570312 L 1280.675781 633.570312 L 1280.675781 628.804688 Z M 1254.464844 631.1875 L 1254.464844 638.335938 L 1259.230469 638.335938 L 1256.847656 631.1875 Z M 1263.996094 647.867188 L 1266.378906 652.632812 Z M 234.714844 376.25 L 291.898438 376.25 L 294.28125 381.015625 L 294.28125 409.605469 L 284.75 495.378906 L 277.601562 516.824219 L 275.21875 519.207031 L 287.132812 523.972656 L 284.75 559.710938 L 282.367188 597.832031 L 284.75 600.214844 L 337.167969 600.214844 L 344.316406 590.683594 L 349.082031 543.03125 L 353.847656 531.121094 L 346.699219 528.738281 L 344.316406 512.058594 L 353.847656 404.84375 L 358.609375 381.015625 L 363.375 376.25 L 418.175781 376.25 L 420.558594 378.632812 L 420.558594 414.371094 L 411.027344 552.5625 L 413.410156 557.328125 L 413.410156 600.214844 L 411.027344 631.1875 L 394.351562 650.25 L 375.289062 666.925781 L 368.140625 669.308594 L 244.246094 669.308594 L 232.335938 664.542969 L 213.273438 645.484375 L 206.125 635.953125 L 208.507812 595.449219 L 213.273438 564.476562 L 218.039062 521.589844 L 222.804688 500.144531 L 218.039062 500.144531 L 215.65625 495.378906 L 218.039062 464.40625 L 227.570312 390.546875 Z M 270.457031 497.761719 L 272.839844 504.910156 L 275.21875 497.761719 Z M 268.074219 550.179688 L 268.074219 554.945312 L 275.21875 554.945312 L 275.21875 550.179688 Z M 372.90625 554.945312 L 372.90625 559.710938 L 377.671875 559.710938 L 377.671875 554.945312 Z M 227.570312 564.476562 L 229.953125 569.242188 L 239.480469 566.859375 L 239.480469 564.476562 Z M 260.925781 645.484375 L 256.160156 655.015625 L 265.691406 652.632812 L 265.691406 645.484375 Z M 973.320312 376.25 L 1028.121094 376.25 L 1035.265625 385.78125 L 1042.414062 471.554688 L 1042.414062 516.824219 L 1040.03125 519.207031 L 1051.945312 523.972656 L 1056.710938 554.945312 L 1059.09375 595.449219 L 1068.625 600.214844 L 1116.273438 600.214844 L 1121.039062 593.066406 L 1118.65625 535.882812 L 1121.039062 531.121094 L 1109.128906 523.972656 L 1097.214844 407.222656 L 1097.214844 378.632812 L 1099.597656 376.25 L 1154.398438 376.25 L 1161.542969 383.398438 L 1175.839844 500.144531 L 1180.605469 550.179688 L 1187.753906 562.09375 L 1194.902344 614.511719 L 1194.902344 635.953125 L 1178.222656 655.015625 L 1161.542969 669.308594 L 1035.265625 669.308594 L 1023.355469 664.542969 L 994.761719 638.335938 L 989.996094 631.1875 L 980.46875 500.144531 L 973.320312 488.234375 L 968.554688 381.015625 Z M 1030.503906 497.761719 L 1032.882812 504.910156 L 1035.265625 497.761719 Z M 1040.03125 550.179688 L 1040.03125 554.945312 L 1044.796875 554.945312 L 1044.796875 550.179688 Z M 1144.867188 554.945312 L 1142.484375 559.710938 L 1149.632812 559.710938 L 1149.632812 554.945312 Z M 1001.910156 564.476562 L 1001.910156 569.242188 L 1011.441406 569.242188 L 1011.441406 564.476562 Z M 1049.5625 645.484375 L 1044.796875 655.015625 L 1054.328125 652.632812 L 1054.328125 645.484375 Z M 661.199219 900.421875 L 723.148438 900.421875 L 742.207031 909.949219 L 768.417969 936.160156 L 773.183594 945.691406 L 775.566406 1026.699219 L 775.566406 1081.496094 L 763.652344 1105.324219 L 758.886719 1105.324219 L 754.121094 1114.855469 L 735.0625 1131.53125 L 727.914062 1133.914062 L 668.347656 1133.914062 L 661.199219 1122 L 658.816406 1098.175781 L 654.050781 1098.175781 L 656.433594 1119.617188 L 654.050781 1124.382812 L 573.042969 1124.382812 L 553.984375 1110.089844 L 532.539062 1081.496094 L 530.15625 1064.820312 L 532.539062 1019.550781 L 539.6875 1010.019531 L 601.636719 1007.636719 L 613.546875 1019.550781 L 615.929688 1036.226562 L 639.757812 1038.609375 L 646.90625 1048.140625 L 646.90625 1052.90625 L 656.433594 1048.140625 L 687.410156 1043.375 L 692.175781 1033.847656 L 692.175781 995.722656 L 680.261719 983.8125 L 646.90625 981.429688 L 644.523438 979.046875 L 644.523438 907.570312 L 649.289062 902.804688 Z M 668.347656 931.394531 L 668.347656 936.160156 L 673.113281 936.160156 L 673.113281 931.394531 Z M 649.289062 1064.820312 L 651.671875 1086.261719 L 656.433594 1083.878906 L 654.050781 1069.585938 Z M 737.441406 1098.175781 L 739.824219 1105.324219 Z M 268.074219 900.421875 L 327.636719 900.421875 L 344.316406 907.570312 L 358.609375 921.863281 L 358.609375 926.628906 L 365.757812 929.011719 L 365.757812 933.777344 L 370.523438 933.777344 L 375.289062 950.457031 L 370.523438 1024.316406 L 365.757812 1079.113281 L 356.230469 1098.175781 L 330.019531 1124.382812 L 313.34375 1133.914062 L 253.777344 1133.914062 L 249.011719 1131.53125 L 244.246094 1117.238281 L 239.480469 1124.382812 L 158.472656 1124.382812 L 141.796875 1110.089844 L 122.734375 1083.878906 L 120.351562 1069.585938 L 125.117188 1029.082031 L 132.265625 1012.402344 L 134.648438 1010.019531 L 196.59375 1007.636719 L 206.125 1012.402344 L 208.507812 1038.609375 L 232.335938 1038.609375 L 239.480469 1045.757812 L 239.480469 1052.90625 L 246.628906 1048.140625 L 272.839844 1045.757812 L 282.367188 1040.992188 L 287.132812 1031.464844 L 289.515625 993.34375 L 287.132812 986.195312 L 268.074219 983.8125 L 246.628906 981.429688 L 241.863281 967.132812 L 249.011719 907.570312 L 253.777344 902.804688 Z M 270.457031 931.394531 L 270.457031 936.160156 L 275.21875 936.160156 L 275.21875 931.394531 Z M 239.480469 1067.203125 L 241.863281 1086.261719 L 244.246094 1086.261719 L 244.246094 1067.203125 Z M 322.871094 1098.175781 L 325.253906 1105.324219 L 327.636719 1098.175781 Z M 322.871094 1098.175781 " fill-opacity="1" fill-rule="nonzero"/><path fill="#fefefe" d="M 587.339844 757.464844 L 611.164062 757.464844 L 618.3125 764.613281 L 623.078125 802.734375 L 623.078125 769.378906 L 625.460938 766.996094 L 642.140625 764.613281 L 692.175781 764.613281 L 732.679688 766.996094 L 751.738281 781.292969 L 770.800781 802.734375 L 773.183594 807.5 L 773.183594 864.683594 L 766.035156 871.828125 L 701.703125 871.828125 L 696.9375 867.066406 L 694.558594 845.621094 L 692.175781 843.238281 L 642.140625 840.855469 L 634.992188 836.089844 L 623.078125 838.472656 L 618.3125 845.621094 L 618.3125 883.742188 L 620.695312 890.890625 L 637.375 895.65625 L 639.757812 898.039062 L 639.757812 959.984375 L 634.992188 971.898438 L 630.226562 974.28125 L 582.574219 974.28125 L 565.898438 964.75 L 546.835938 945.691406 L 537.304688 931.394531 L 539.6875 831.324219 L 542.070312 797.96875 L 553.984375 781.292969 L 580.191406 759.847656 Z M 654.050781 790.820312 L 656.433594 805.117188 L 661.199219 802.734375 L 656.433594 790.820312 Z M 606.402344 900.421875 L 606.402344 905.1875 L 615.929688 905.1875 L 615.929688 900.421875 Z M 568.28125 919.480469 L 570.660156 924.246094 Z M 589.722656 931.394531 L 592.105469 936.160156 Z M 206.125 757.464844 L 229.953125 757.464844 L 234.714844 762.230469 L 234.714844 805.117188 L 239.480469 805.117188 L 239.480469 771.761719 L 244.246094 766.996094 L 260.925781 764.613281 L 308.578125 764.613281 L 349.082031 766.996094 L 368.140625 781.292969 L 384.820312 802.734375 L 384.820312 836.089844 L 382.4375 862.300781 L 375.289062 871.828125 L 310.960938 871.828125 L 306.195312 869.445312 L 303.8125 852.769531 L 303.8125 843.238281 L 253.777344 840.855469 L 246.628906 836.089844 L 229.953125 838.472656 L 225.1875 881.359375 L 227.570312 888.507812 L 241.863281 895.65625 L 246.628906 902.804688 L 239.480469 962.367188 L 234.714844 971.898438 L 229.953125 974.28125 L 182.300781 974.28125 L 168.003906 967.132812 L 158.472656 957.601562 L 158.472656 952.835938 L 151.324219 950.457031 L 139.414062 929.011719 L 144.179688 886.125 L 156.089844 800.351562 L 165.621094 786.054688 L 182.300781 771.761719 L 187.066406 771.761719 L 187.066406 766.996094 Z M 268.074219 790.820312 L 270.457031 805.117188 L 275.21875 802.734375 L 272.839844 793.203125 Z M 213.273438 900.421875 L 210.890625 905.1875 L 220.421875 905.1875 L 220.421875 900.421875 Z M 191.828125 931.394531 L 194.210938 936.160156 Z M 27.429688 369.101562 L 125.117188 369.101562 L 120.351562 392.929688 L 127.5 378.632812 L 134.648438 376.25 L 203.742188 376.25 L 210.890625 381.015625 L 210.890625 407.222656 L 206.125 433.433594 L 201.359375 435.816406 L 148.941406 438.199219 L 144.179688 440.582031 L 129.882812 531.121094 L 110.820312 662.160156 L 103.675781 669.308594 L 46.492188 669.308594 L 41.726562 666.925781 L 41.726562 643.101562 L 51.257812 585.917969 L 58.40625 540.648438 L 65.550781 521.589844 L 82.230469 495.378906 L 98.910156 471.554688 L 98.910156 466.789062 L 84.613281 488.234375 L 79.847656 488.234375 L 75.082031 497.761719 L 67.933594 507.292969 L 63.171875 507.292969 L 65.550781 481.085938 L 72.699219 440.582031 L 70.316406 428.667969 L 17.902344 426.285156 L 15.519531 423.902344 L 15.519531 404.84375 L 22.664062 373.867188 Z M 86.996094 402.460938 L 84.613281 407.222656 L 89.378906 407.222656 Z M 158.472656 402.460938 L 158.472656 407.222656 L 163.238281 407.222656 L 163.238281 402.460938 Z M 53.640625 411.988281 L 56.023438 416.753906 Z M 117.96875 440.582031 L 115.585938 447.726562 L 125.117188 445.347656 L 122.734375 440.582031 Z M 86.996094 600.214844 L 86.996094 604.980469 L 91.761719 604.980469 L 91.761719 600.214844 Z M 75.082031 657.394531 L 75.082031 662.160156 L 82.230469 659.777344 Z M 75.082031 657.394531 " fill-opacity="1" fill-rule="nonzero"/><path fill="#fefefe" d="M 425.324219 857.535156 L 432.472656 864.683594 L 437.238281 876.59375 L 453.914062 893.273438 L 453.914062 898.039062 L 463.445312 902.804688 L 470.59375 919.480469 L 472.976562 955.21875 L 484.886719 1017.167969 L 487.269531 1021.933594 L 487.269531 1043.375 L 489.652344 1057.671875 L 484.886719 1117.238281 L 477.742188 1124.382812 L 418.175781 1124.382812 L 408.644531 1117.238281 L 413.410156 1000.488281 L 420.558594 895.65625 L 422.941406 859.917969 Z M 468.210938 1086.261719 L 468.210938 1091.027344 L 472.976562 1091.027344 L 472.976562 1086.261719 Z M 468.210938 1086.261719 " fill-opacity="1" fill-rule="nonzero"/><path fill="#fefefe" d="M 442.003906 764.613281 L 499.183594 764.613281 L 506.332031 771.761719 L 494.417969 995.722656 L 492.035156 1000.488281 L 487.269531 1000.488281 L 477.742188 955.21875 L 472.976562 905.1875 L 453.914062 881.359375 L 442.003906 871.828125 L 434.855469 855.152344 L 434.855469 771.761719 Z M 484.886719 800.351562 L 492.035156 807.5 L 492.035156 800.351562 Z M 484.886719 800.351562 " fill-opacity="1" fill-rule="nonzero"/><path fill="#fefefe" d="M 427.707031 812.265625 L 432.472656 812.265625 L 432.472656 838.472656 L 425.324219 840.855469 L 425.324219 817.03125 Z M 427.707031 812.265625 " fill-opacity="1" fill-rule="nonzero"/></svg>